:FULLY-SPECIFIED
:FORCE-ALL-JOINTS-BE-3DOF
:DEGREES
1
root -2.95645 16.8291 -36.2757 3.79203 -0.409345 -2.77144
lfemur -18.1857 -3.85478 -7.37129
ltibia 37.6337 0 0
lfoot -17.8071 6.78532 0
ltoes -26.1578 0 0
rfemur -19.1521 0.15077 14.7318
rtibia 40.3652 0 0
rfoot -23.1652 -2.86285 0
rtoes -21.0274 0 0
lowerback 7.02591 2.55716 -1.97249
upperback -3.14202 3.31583 1.27229
thorax -7.43554 1.75645 1.99661
lowerneck -4.68188 -4.04088 -6.84108
upperneck 4.69893 -5.30737 6.47589
head 2.76948 -2.5844 3.14763
lclavicle 1.91563e-15 -9.24349e-15 0
lhumerus -27.0689 -5.33108 89.6453
lradius 25.7364 0 0
lwrist -30.6252 0 0
lhand -28.8405 29.9909 0
lfingers 7.12502 0 0
lthumb -2.19771 59.9594 0
rclavicle 1.91563e-15 -9.24349e-15 0
rhumerus -32.8355 4.71181 -81.727
rradius 32.9783 0 0
rwrist 3.84135 0 0
rhand -24.1523 -25.0894 0
rfingers 7.12502 0 0
rthumb 2.33029 -55.0564 0
2
root -2.95647 16.8281 -36.2789 3.83496 -0.515041 -2.77044
lfemur -18.1825 -3.82755 -7.37576
ltibia 37.6375 0 0
lfoot -17.8096 6.78772 0
ltoes -26.1252 0 0
rfemur -19.1528 0.136954 14.7322
rtibia 40.3721 0 0
rfoot -23.1598 -2.83264 0
rtoes -20.9823 0 0
lowerback 7.0168 2.56529 -1.92512
upperback -3.13081 3.33086 1.26317
thorax -7.41553 1.76102 1.95907
lowerneck -4.72931 -3.99134 -6.7546
upperneck 4.68931 -5.23907 6.40124
head 2.76328 -2.55005 3.10787
lclavicle 5.93256e-14 2.27111e-14 0
lhumerus -27.0233 -5.3365 89.6327
lradius 25.816 0 0
lwrist -30.5008 0 0
lhand -28.8143 30.0141 0
lfingers 7.12502 0 0
lthumb -2.17236 59.9828 0
rclavicle 5.93256e-14 2.27111e-14 0
rhumerus -32.691 4.65476 -81.7097
rradius 32.7912 0 0
rwrist 3.85859 0 0
rhand -24.0097 -25.3916 0
rfingers 7.12502 0 0
rthumb 2.46795 -55.3571 0
3
root -2.95654 16.8272 -36.2808 3.87536 -0.609706 -2.74215
lfemur -18.1732 -3.74896 -7.38865
ltibia 37.6486 0 0
lfoot -17.8168 6.79462 0
ltoes -26.0319 0 0
rfemur -19.1548 0.0971541 14.7332
rtibia 40.3918 0 0
rfoot -23.1445 -2.74596 0
rtoes -20.8513 0 0
lowerback 6.97964 2.56886 -1.91256
upperback -3.12187 3.33669 1.25357
thorax -7.38337 1.76276 1.94295
lowerneck -4.65596 -3.96919 -6.78933
upperneck 4.65659 -5.21207 6.43618
head 2.73923 -2.5375 3.12874
lclavicle -3.03558e-14 -2.85753e-14 0
lhumerus -26.9602 -5.21976 89.6094
lradius 25.838 0 0
lwrist -30.4581 0 0
lhand -28.8295 30.1147 0
lfingers 7.12502 0 0
lthumb -2.18701 60.0832 0
rclavicle -3.03558e-14 -2.85753e-14 0
rhumerus -32.599 4.59256 -81.6813
rradius 32.6643 0 0
rwrist 3.86008 0 0
rhand -23.8685 -25.3572 0
rfingers 7.12502 0 0
rthumb 2.60437 -55.3211 0
4
root -2.95608 16.8264 -36.2839 3.91591 -0.691332 -2.68194
lfemur -18.1585 -3.62369 -7.40921
ltibia 37.6664 0 0
lfoot -17.8283 6.8056 0
ltoes -25.8847 0 0
rfemur -19.1581 0.033846 14.7349
rtibia 40.4232 0 0
rfoot -23.1201 -2.60876 0
rtoes -20.6408 0 0
lowerback 6.97732 2.56488 -1.92358
upperback -3.12468 3.32854 1.22857
thorax -7.38364 1.75861 1.92401
lowerneck -4.67577 -3.93993 -6.77722
upperneck 4.69449 -5.17403 6.43694
head 2.75249 -2.51803 3.12843
lclavicle -9.73579e-15 9.44227e-16 0
lhumerus -26.9402 -5.14266 89.5811
lradius 25.875 0 0
lwrist -30.424 0 0
lhand -28.9233 30.0297 0
lfingers 7.12502 0 0
lthumb -2.27764 59.9973 0
rclavicle -9.73579e-15 9.44227e-16 0
rhumerus -32.5377 4.54401 -81.6659
rradius 32.5541 0 0
rwrist 3.86469 0 0
rhand -23.8239 -25.143 0
rfingers 7.12502 0 0
rthumb 2.64745 -55.1063 0
5
root -2.9567 16.8246 -36.2864 3.93099 -0.778759 -2.70931
lfemur -18.1388 -3.4564 -7.43666
ltibia 37.6903 0 0
lfoot -17.8435 6.82023 0
ltoes -25.6903 0 0
rfemur -19.1624 -0.050496 14.7372
rtibia 40.4649 0 0
rfoot -23.0879 -2.42699 0
rtoes -20.357 0 0
lowerback 6.9958 2.57611 -1.85729
upperback -3.12063 3.34971 1.22615
thorax -7.38683 1.76566 1.88076
lowerneck -4.69782 -3.92264 -6.7611
upperneck 4.7339 -5.15184 6.43111
head 2.76744 -2.50652 3.12428
lclavicle 3.53371e-14 1.84373e-14 0
lhumerus -26.8952 -5.05649 89.5713
lradius 25.9147 0 0
lwrist -30.3058 0 0
lhand -28.8084 30.0504 0
lfingers 7.12502 0 0
lthumb -2.16669 60.0192 0
rclavicle 3.53371e-14 1.84373e-14 0
rhumerus -32.48 4.47578 -81.6329
rradius 32.4548 0 0
rwrist 3.83828 0 0
rhand -23.7654 -25.2923 0
rfingers 7.12502 0 0
rthumb 2.70389 -55.2549 0
6
root -2.95737 16.8243 -36.2883 3.94289 -0.854282 -2.6876
lfemur -18.1147 -3.25177 -7.47024
ltibia 37.7197 0 0
lfoot -17.8622 6.83808 0
ltoes -25.4554 0 0
rfemur -19.1676 -0.153397 14.7399
rtibia 40.5156 0 0
rfoot -23.0488 -2.20659 0
rtoes -20.0065 0 0
lowerback 7.0144 2.57229 -1.86316
upperback -3.11534 3.34403 1.2309
thorax -7.3923 1.76323 1.88914
lowerneck -4.57641 -3.94245 -6.84362
upperneck 4.6996 -5.18225 6.49127
head 2.74109 -2.52356 3.16083
lclavicle -3.80486e-16 -4.87022e-15 0
lhumerus -26.8596 -4.91182 89.5658
lradius 25.9279 0 0
lwrist -30.283 0 0
lhand -28.8355 30.0625 0
lfingers 7.12502 0 0
lthumb -2.1928 60.0309 0
rclavicle -3.80486e-16 -4.87022e-15 0
rhumerus -32.4017 4.44141 -81.5915
rradius 32.3445 0 0
rwrist 3.83346 0 0
rhand -23.7261 -25.2645 0
rfingers 7.12502 0 0
rthumb 2.74187 -55.2266 0
7
root -2.95846 16.8226 -36.2919 3.93153 -0.9345 -2.69314
lfemur -18.0868 -3.01445 -7.50918
ltibia 37.754 0 0
lfoot -17.8837 6.85872 0
ltoes -25.1869 0 0
rfemur -19.1737 -0.272384 14.7431
rtibia 40.5741 0 0
rfoot -23.0038 -1.95349 0
rtoes -19.5954 0 0
lowerback 7.08453 2.56962 -1.83581
upperback -3.11989 3.34261 1.23591
thorax -7.43629 1.76152 1.87618
lowerneck -4.53666 -3.9248 -6.84572
upperneck 4.68682 -5.16054 6.4957
head 2.7279 -2.51333 3.16425
lclavicle -2.45973e-14 -5.61567e-15 0
lhumerus -26.8456 -4.82786 89.5671
lradius 25.943 0 0
lwrist -30.1908 0 0
lhand -28.7613 30.2056 0
lfingers 7.12502 0 0
lthumb -2.12122 60.1748 0
rclavicle -2.45973e-14 -5.61567e-15 0
rhumerus -32.3995 4.41298 -81.5569
rradius 32.2947 0 0
rwrist 3.80521 0 0
rhand -23.7605 -25.19 0
rfingers 7.12502 0 0
rthumb 2.70869 -55.1526 0
8
root -2.95938 16.8202 -36.2942 3.90824 -0.999707 -2.68949
lfemur -18.0555 -2.74913 -7.55272
ltibia 37.7927 0 0
lfoot -17.9077 6.88172 0
ltoes -24.8913 0 0
rfemur -19.1804 -0.40498 14.7466
rtibia 40.639 0 0
rfoot -22.9542 -1.67365 0
rtoes -19.1303 0 0
lowerback 7.12978 2.57197 -1.83028
upperback -3.11363 3.34624 1.24438
thorax -7.45617 1.76323 1.87967
lowerneck -4.48231 -3.90027 -6.83719
upperneck 4.67184 -5.13058 6.49201
head 2.70983 -2.49926 3.16335
lclavicle -2.9386e-14 -1.04362e-14 0
lhumerus -26.8323 -4.81999 89.6027
lradius 25.9513 0 0
lwrist -30.0676 0 0
lhand -28.7718 30.1776 0
lfingers 7.12502 0 0
lthumb -2.13131 60.1467 0
rclavicle -2.9386e-14 -1.04362e-14 0
rhumerus -32.3584 4.32911 -81.4933
rradius 32.2071 0 0
rwrist 3.83292 0 0
rhand -23.7333 -25.4342 0
rfingers 7.12502 0 0
rthumb 2.73489 -55.3965 0
9
root -2.96164 16.8201 -36.298 3.88665 -1.04356 -2.6192
lfemur -18.0216 -2.46046 -7.60009
ltibia 37.8352 0 0
lfoot -17.9337 6.90665 0
ltoes -24.5755 0 0
rfemur -19.1878 -0.548712 14.7504
rtibia 40.709 0 0
rfoot -22.9008 -1.37301 0
rtoes -18.6175 0 0
lowerback 7.18039 2.57067 -1.89304
upperback -3.09596 3.33639 1.23216
thorax -7.46916 1.76089 1.90158
lowerneck -4.49431 -3.89794 -6.80454
upperneck 4.70271 -5.1278 6.45334
head 2.71942 -2.49812 3.14375
lclavicle 2.14967e-14 1.2424e-15 0
lhumerus -26.7892 -4.84844 89.6436
lradius 25.9665 0 0
lwrist -29.9865 0 0
lhand -28.7872 30.251 0
lfingers 7.12502 0 0
lthumb -2.14623 60.22 0
rclavicle 2.14967e-14 1.2424e-15 0
rhumerus -32.313 4.25003 -81.4333
rradius 32.124 0 0
rwrist 3.83658 0 0
rhand -23.7364 -25.3968 0
rfingers 7.12502 0 0
rthumb 2.73191 -55.3591 0
10
root -2.96257 16.8187 -36.3006 3.82186 -1.09871 -2.67835
lfemur -17.9854 -2.15312 -7.65052
ltibia 37.8809 0 0
lfoot -17.9613 6.93308 0
ltoes -24.2463 0 0
rfemur -19.1955 -0.701105 14.7545
rtibia 40.7829 0 0
rfoot -22.8449 -1.05751 0
rtoes -18.0633 0 0
lowerback 7.26884 2.56757 -1.81264
upperback -3.07791 3.34074 1.25561
thorax -7.49774 1.75958 1.87725
lowerneck -4.43184 -3.87669 -6.83038
upperneck 4.68429 -5.1029 6.49256
head 2.70221 -2.48618 3.16419
lclavicle 3.94619e-15 9.34288e-15 0
lhumerus -26.7742 -4.86354 89.6848
lradius 25.9645 0 0
lwrist -29.9096 0 0
lhand -28.8032 30.3804 0
lfingers 7.12502 0 0
lthumb -2.16164 60.3492 0
rclavicle 3.94619e-15 9.34288e-15 0
rhumerus -32.281 4.20465 -81.387
rradius 32.0272 0 0
rwrist 3.86094 0 0
rhand -23.5613 -25.1969 0
rfingers 7.12502 0 0
rthumb 2.901 -55.1569 0
11
root -2.96533 16.8183 -36.3052 3.7773 -1.12706 -2.65657
lfemur -17.9476 -1.83178 -7.70326
ltibia 37.9292 0 0
lfoot -17.99 6.96059 0
ltoes -23.9103 0 0
rfemur -19.2036 -0.859684 14.7587
rtibia 40.8594 0 0
rfoot -22.7873 -0.733089 0
rtoes -17.474 0 0
lowerback 7.35975 2.55874 -1.83477
upperback -3.05142 3.32511 1.25483
thorax -7.52249 1.75266 1.88778
lowerneck -4.47414 -3.86243 -6.81756
upperneck 4.70978 -5.0834 6.49714
head 2.71699 -2.47543 3.16386
lclavicle -2.76124e-15 -1.42131e-14 0
lhumerus -26.6951 -4.88466 89.7096
lradius 25.9433 0 0
lwrist -29.916 0 0
lhand -28.7776 30.4017 0
lfingers 7.12502 0 0
lthumb -2.13695 60.3707 0
rclavicle -2.76124e-15 -1.42131e-14 0
rhumerus -32.2346 4.13666 -81.3452
rradius 31.9361 0 0
rwrist 3.9077 0 0
rhand -23.4588 -25.2921 0
rfingers 7.12502 0 0
rthumb 3.00003 -55.2507 0
12
root -2.96799 16.8168 -36.3089 3.72504 -1.1682 -2.61114
lfemur -17.9086 -1.50109 -7.75752
ltibia 37.9795 0 0
lfoot -18.0194 6.98874 0
ltoes -23.5742 0 0
rfemur -19.2119 -1.02198 14.763
rtibia 40.9372 0 0
rfoot -22.7292 -0.405701 0
rtoes -16.8562 0 0
lowerback 7.43751 2.55674 -1.88879
upperback -3.01544 3.31539 1.25431
thorax -7.53176 1.75002 1.91639
lowerneck -4.49254 -3.86117 -6.81037
upperneck 4.69515 -5.08005 6.4894
head 2.71464 -2.47352 3.15968
lclavicle -1.47489e-14 -9.0447e-15 0
lhumerus -26.6203 -4.92674 89.7453
lradius 25.929 0 0
lwrist -29.9284 0 0
lhand -28.8039 30.2353 0
lfingers 7.12502 0 0
lthumb -2.1623 60.2041 0
rclavicle -1.47489e-14 -9.0447e-15 0
rhumerus -32.1598 4.04937 -81.2889
rradius 31.8254 0 0
rwrist 3.95881 0 0
rhand -23.158 -25.6538 0
rfingers 7.12502 0 0
rthumb 3.29051 -55.6082 0
13
root -2.97077 16.8149 -36.3131 3.67436 -1.18174 -2.65407
lfemur -17.8692 -1.16574 -7.81255
ltibia 38.0313 0 0
lfoot -18.0489 7.01711 0
ltoes -23.245 0 0
rfemur -19.2202 -1.1855 14.7674
rtibia 41.015 0 0
rfoot -22.6716 -0.0812836 0
rtoes -16.216 0 0
lowerback 7.54453 2.54441 -1.83937
upperback -2.99961 3.30324 1.26578
thorax -7.57376 1.74187 1.8984
lowerneck -4.51076 -3.84744 -6.78158
upperneck 4.70982 -5.06226 6.47599
head 2.72 -2.46419 3.1502
lclavicle 7.52159e-14 4.52235e-15 0
lhumerus -26.5484 -4.95046 89.7574
lradius 25.876 0 0
lwrist -30.0079 0 0
lhand -28.8252 30.0874 0
lfingers 7.12502 0 0
lthumb -2.18294 60.056 0
rclavicle 7.52159e-14 4.52235e-15 0
rhumerus -32.1262 3.98379 -81.2555
rradius 31.7328 0 0
rwrist 3.97869 0 0
rhand -23.3311 -25.296 0
rfingers 7.12502 0 0
rthumb 3.12331 -55.2528 0
14
root -2.9734 16.8131 -36.3175 3.64581 -1.18107 -2.61333
lfemur -17.8297 -0.830388 -7.86758
ltibia 38.084 0 0
lfoot -18.0783 7.04526 0
ltoes -22.9292 0 0
rfemur -19.2285 -1.3478 14.7717
rtibia 41.0915 0 0
rfoot -22.6157 0.234218 0
rtoes -15.56 0 0
lowerback 7.60768 2.53026 -1.87295
upperback -2.98667 3.27875 1.25222
thorax -7.59634 1.73099 1.90415
lowerneck -4.46317 -3.83507 -6.78749
upperneck 4.68704 -5.04979 6.51941
head 2.70443 -2.45768 3.16751
lclavicle -6.3052e-16 3.8266e-15 0
lhumerus -26.503 -5.03963 89.7885
lradius 25.8622 0 0
lwrist -30.0051 0 0
lhand -28.8241 30.0109 0
lfingers 7.12502 0 0
lthumb -2.18183 59.9795 0
rclavicle -6.3052e-16 3.8266e-15 0
rhumerus -32.0722 3.91732 -81.2287
rradius 31.6435 0 0
rwrist 3.93327 0 0
rhand -23.2512 -25.5148 0
rfingers 7.12502 0 0
rthumb 3.20049 -55.4705 0
